<svg xmlns="http://www.w3.org/2000/svg" xmlns:xlink="http://www.w3.org/1999/xlink" width="22" height="22" viewBox="0 0 22 22">
    <defs>
        <path id="u04mzivbqa" d="M0 0L21.995 0 21.995 22 0 22z"/>
    </defs>
    <g fill="none" fill-rule="evenodd" transform="matrix(-1 0 0 1 22 0)">
        <mask id="phjlvxubjb" fill="#fff">
            <use xlink:href="#u04mzivbqa"/>
        </mask>
        <path fill="#000" d="M3.574 13.774c-2.812-2.812-2.812-7.385 0-10.196 1.362-1.361 3.172-2.111 5.098-2.111 1.925 0 3.736.75 5.098 2.111 2.81 2.811 2.81 7.384 0 10.196-1.362 1.362-3.173 2.111-5.098 2.111-1.926 0-3.736-.75-5.098-2.111m18.207 6.974L15.3 14.267c2.876-3.406 2.716-8.518-.493-11.726C13.17.903 10.99.001 8.672.001 6.354 0 4.175.902 2.538 2.54c-3.384 3.383-3.384 8.887 0 12.27 1.637 1.639 3.816 2.541 6.134 2.541 2.07 0 4.027-.724 5.592-2.047l6.48 6.48c.143.143.33.215.518.215.187 0 .375-.072.519-.215.286-.286.286-.751 0-1.037" mask="url(#phjlvxubjb)"/>
    </g>
</svg>
