<svg xmlns="http://www.w3.org/2000/svg" xmlns:xlink="http://www.w3.org/1999/xlink" width="31" height="23" viewBox="0 0 31 23">
    <defs>
        <path id="e0f6e3zmna" d="M0 0L29.581 0 29.581 21.514 0 21.514z"/>
    </defs>
    <g fill="none" fill-rule="evenodd" transform="translate(.566 .5)">
        <mask id="r7vfrw9ceb" fill="#fff">
            <use xlink:href="#e0f6e3zmna"/>
        </mask>
        <path fill="#000" d="M23.709 18.488c.471 0 .839.369.839.84 0 .473-.368.841-.84.841-.47 0-.839-.368-.839-.84s.368-.84.84-.84zm-10.075 0c.471 0 .84.369.84.84 0 .473-.369.841-.84.841-.472 0-.84-.368-.84-.84s.368-.84.84-.84zm10.075-1.344c-1.198 0-2.183.986-2.183 2.185s.985 2.185 2.183 2.185c1.197 0 2.182-.986 2.182-2.185s-.985-2.185-2.182-2.185zM11.45 19.329c0 1.199.985 2.185 2.183 2.185 1.197 0 2.182-.986 2.182-2.185s-.985-2.185-2.182-2.185c-1.198 0-2.183.986-2.183 2.185zM9.645 5.043l18.366.02-2.949 9.728H12.301L9.645 5.043zM.001.705c.017.37.332.658.703.64h6.538l3.894 14.286c.077.297.344.505.65.505h13.77c.296-.002.556-.199.64-.484L29.554 4.58c.105-.356-.1-.729-.456-.834-.06-.017-.121-.026-.184-.027L9.278 3.7 8.407.494C8.327.202 8.06-.001 7.757 0H.64C.27.018-.017.333 0 .705z" mask="url(#r7vfrw9ceb)"/>
    </g>
</svg>
